<svg width="319.000000" height="49.000000" viewBox="0 0 319 49" fill="none" xmlns="http://www.w3.org/2000/svg" xmlns:xlink="http://www.w3.org/1999/xlink">
	<desc>
			Created with Pixso.
	</desc>
	<defs/>
	<path id="path" d="M150.563 35.949L148.541 35.949L148.541 32.8074L150.563 32.8074C151.819 32.8074 153.084 32.495 153.909 31.6227C154.733 30.7505 155.03 29.4146 155.03 28.0875C155.03 26.7604 154.733 25.4233 153.909 24.5523C153.084 23.68 151.819 23.3676 150.563 23.3676C149.307 23.3676 148.042 23.68 147.218 24.5523C146.393 25.4245 146.097 26.7604 146.097 28.0875L146.097 41L142.541 41L142.541 20.226L146.097 20.226L146.097 21.5482L146.748 21.5482C146.817 21.4719 146.888 21.3982 146.966 21.3282C147.853 20.5172 149.213 20.2273 150.563 20.2273C152.655 20.2273 154.761 20.7484 156.135 22.1992C157.508 23.6513 158.001 25.8769 158.001 28.0888C158.001 30.3006 157.508 32.5262 156.135 33.9783C154.761 35.4304 152.655 35.949 150.563 35.949Z" fill-rule="nonzero" fill="#4D6BFE"/>
	<path id="path" d="M96.4379 20.7758L98.4598 20.7758L98.4598 23.9174L96.4379 23.9174C95.1819 23.9174 93.9169 24.2298 93.0923 25.102C92.2677 25.9743 91.9716 27.3101 91.9716 28.6372C91.9716 29.9644 92.2677 31.3015 93.0923 32.1725C93.9169 33.0447 95.1819 33.3571 96.4379 33.3571C97.6939 33.3571 98.9589 33.0447 99.7835 32.1725C100.608 31.3002 100.904 29.9644 100.904 28.6372L100.904 15.7248L104.46 15.7248L104.46 36.4987L100.904 36.4987L100.904 35.1766L100.253 35.1766C100.184 35.2528 100.113 35.3265 100.035 35.3965C99.1478 36.2075 97.7884 36.4975 96.4379 36.4975C94.3458 36.4975 92.2396 35.9764 90.8662 34.5255C89.4927 33.0735 89 30.8479 89 28.636C89 26.4241 89.4927 24.1985 90.8662 22.7465C92.2396 21.2969 94.3458 20.7758 96.4379 20.7758Z" fill-rule="nonzero" fill="#4D6BFE"/>
	<path id="path" d="M280.518 20.7758L282.539 20.7758L282.539 23.9174L280.518 23.9174C279.262 23.9174 277.997 24.2298 277.172 25.102C276.347 25.9743 276.051 27.3101 276.051 28.6372C276.051 29.9644 276.347 31.3015 277.172 32.1725C277.997 33.0447 279.262 33.3571 280.518 33.3571C281.774 33.3571 283.039 33.0447 283.863 32.1725C284.688 31.3002 284.984 29.9644 284.984 28.6372L284.984 15.7248L288.54 15.7248L288.54 36.4987L284.984 36.4987L284.984 35.1766L284.333 35.1766C284.264 35.2528 284.193 35.3265 284.115 35.3965C283.228 36.2075 281.868 36.4975 280.518 36.4975C278.425 36.4975 276.319 35.9764 274.946 34.5255C273.572 33.0735 273.08 30.8479 273.08 28.636C273.08 26.4241 273.572 24.1985 274.946 22.7465C276.319 21.2969 278.425 20.7758 280.518 20.7758Z" fill-rule="nonzero" fill="#4D6BFE"/>
	<path id="path" d="M122.305 28.3625L122.305 29.6234L112.835 29.6234L112.835 27.1004L119.12 27.1004C118.974 26.1794 118.643 25.3259 118.051 24.7023C117.194 23.8001 115.879 23.4764 114.575 23.4764C113.27 23.4764 111.956 23.8001 111.099 24.7023C110.243 25.6046 109.935 26.9879 109.935 28.3613C109.935 29.7346 110.243 31.118 111.099 32.0202C111.956 32.9224 113.27 33.2461 114.575 33.2461C115.879 33.2461 117.194 32.9224 118.051 32.0202C118.172 31.8927 118.282 31.7553 118.381 31.6103L121.895 31.6103C121.59 32.6963 121.099 33.6822 120.364 34.4557C118.937 35.9578 116.747 36.4964 114.574 36.4964C112.4 36.4964 110.211 35.9578 108.784 34.4557C107.357 32.9537 106.845 30.6494 106.845 28.3613C106.845 26.0732 107.357 23.7689 108.784 22.2668C110.211 20.7647 112.4 20.2261 114.574 20.2261C116.747 20.2261 118.937 20.7647 120.364 22.2668C121.794 23.7701 122.305 26.0732 122.305 28.3625Z" fill-rule="nonzero" fill="#4D6BFE"/>
	<path id="path" d="M140.154 28.3625L140.154 29.6234L130.684 29.6234L130.684 27.1004L136.969 27.1004C136.822 26.1794 136.492 25.3259 135.899 24.7023C135.043 23.8001 133.728 23.4764 132.424 23.4764C131.119 23.4764 129.804 23.8001 128.948 24.7023C128.091 25.6046 127.784 26.9879 127.784 28.3613C127.784 29.7346 128.091 31.118 128.948 32.0202C129.804 32.9224 131.119 33.2461 132.424 33.2461C133.728 33.2461 135.043 32.9224 135.899 32.0202C136.021 31.8927 136.13 31.7553 136.23 31.6103L139.744 31.6103C139.439 32.6963 138.947 33.6822 138.212 34.4557C136.785 35.9578 134.596 36.4964 132.422 36.4964C130.248 36.4964 128.059 35.9578 126.632 34.4557C125.205 32.9537 124.693 30.6494 124.693 28.3613C124.693 26.0732 125.205 23.7689 126.632 22.2668C128.059 20.7647 130.248 20.2261 132.422 20.2261C134.596 20.2261 136.785 20.7647 138.212 22.2668C139.642 23.7701 140.154 26.0732 140.154 28.3625Z" fill-rule="nonzero" fill="#4D6BFE"/>
	<path id="path" d="M168.119 36.4976C170.293 36.4976 172.482 36.1802 173.909 35.293C175.337 34.4057 175.848 33.0461 175.848 31.6953C175.848 30.3444 175.337 28.9848 173.909 28.0976C172.482 27.2103 170.293 26.8929 168.119 26.8929L168.197 26.8929C167.269 26.8929 166.336 26.7692 165.727 26.4256C165.119 26.0819 164.9 25.5533 164.9 25.0297C164.9 24.5061 165.119 23.9775 165.727 23.6339C166.336 23.2902 167.269 23.1665 168.197 23.1665C169.125 23.1665 170.058 23.2902 170.667 23.6339C171.276 23.9775 171.494 24.5061 171.494 25.0297L175.113 25.0297C175.113 23.6789 174.65 22.3193 173.359 21.432C172.068 20.5448 170.088 20.2274 168.121 20.2274C166.154 20.2274 164.174 20.5448 162.882 21.432C161.59 22.3193 161.128 23.6789 161.128 25.0297C161.128 26.3806 161.592 27.7402 162.882 28.6274C164.173 29.5147 166.154 29.8321 168.121 29.8321C169.146 29.8321 170.264 29.9558 170.937 30.2994C171.609 30.6431 171.851 31.1717 171.851 31.6953C171.851 32.2189 171.609 32.7475 170.937 33.0911C170.264 33.4348 169.231 33.5585 168.206 33.5585C167.181 33.5585 166.149 33.4348 165.476 33.0911C164.803 32.7475 164.562 32.2189 164.562 31.6953L160.392 31.6953C160.392 33.0461 160.904 34.4057 162.331 35.293C163.758 36.1802 165.944 36.4976 168.119 36.4976Z" fill-rule="nonzero" fill="#4D6BFE"/>
	<path id="path" d="M193.696 28.3625L193.696 29.6234L184.226 29.6234L184.226 27.1004L190.511 27.1004C190.364 26.1794 190.034 25.3259 189.441 24.7023C188.585 23.8001 187.27 23.4764 185.965 23.4764C184.661 23.4764 183.346 23.8001 182.49 24.7023C181.633 25.6046 181.326 26.9879 181.326 28.3613C181.326 29.7346 181.633 31.118 182.49 32.0202C183.346 32.9224 184.661 33.2461 185.965 33.2461C187.27 33.2461 188.585 32.9224 189.441 32.0202C189.563 31.8927 189.672 31.7553 189.772 31.6103L193.286 31.6103C192.981 32.6963 192.489 33.6822 191.754 34.4557C190.327 35.9578 188.138 36.4964 185.964 36.4964C183.79 36.4964 181.601 35.9578 180.174 34.4557C178.747 32.9537 178.235 30.6494 178.235 28.3613C178.235 26.0732 178.747 23.7689 180.174 22.2668C181.601 20.7647 183.79 20.2261 185.964 20.2261C188.138 20.2261 190.327 20.7647 191.754 22.2668C193.184 23.7701 193.696 26.0732 193.696 28.3625Z" fill-rule="nonzero" fill="#4D6BFE"/>
	<path id="path" d="M306.325 28.295L306.325 29.5559L296.855 29.5559L296.855 27.0329L303.14 27.0329C302.993 26.1119 302.663 25.2584 302.07 24.6348C301.214 23.7326 299.899 23.4089 298.594 23.4089C297.29 23.4089 295.975 23.7326 295.119 24.6348C294.262 25.5371 293.955 26.9204 293.955 28.2938C293.955 29.6671 294.262 31.0504 295.119 31.9527C295.975 32.8549 297.29 33.1786 298.594 33.1786C299.899 33.1786 301.214 32.8549 302.07 31.9527C302.192 31.8252 302.301 31.6878 302.401 31.5428L305.915 31.5428C305.61 32.6287 305.118 33.6147 304.383 34.3882C302.956 35.8903 300.767 36.4289 298.593 36.4289C296.419 36.4289 294.23 35.8903 292.803 34.3882C291.376 32.8862 290.864 30.5818 290.864 28.2938C290.864 26.0057 291.376 23.7013 292.803 22.1993C294.23 20.6972 296.419 20.1586 298.593 20.1586C300.767 20.1586 302.956 20.6972 304.383 22.1993C305.813 23.7038 306.325 26.0069 306.325 28.295Z" fill-rule="nonzero" fill="#4D6BFE"/>
	<path id="path" d="M211.543 28.3625L211.543 29.6234L202.073 29.6234L202.073 27.1004L208.358 27.1004C208.212 26.1794 207.881 25.3259 207.289 24.7023C206.432 23.8001 205.117 23.4764 203.813 23.4764C202.508 23.4764 201.194 23.8001 200.337 24.7023C199.481 25.6046 199.173 26.9879 199.173 28.3613C199.173 29.7346 199.481 31.118 200.337 32.0202C201.194 32.9224 202.508 33.2461 203.813 33.2461C205.117 33.2461 206.432 32.9224 207.289 32.0202C207.41 31.8927 207.52 31.7553 207.619 31.6103L211.133 31.6103C210.828 32.6963 210.337 33.6822 209.602 34.4557C208.175 35.9578 205.985 36.4964 203.812 36.4964C201.638 36.4964 199.449 35.9578 198.022 34.4557C196.595 32.9537 196.083 30.6494 196.083 28.3613C196.083 26.0732 196.595 23.7689 198.022 22.2668C199.449 20.7647 201.638 20.2261 203.812 20.2261C205.985 20.2261 208.175 20.7647 209.602 22.2668C211.031 23.7701 211.543 26.0732 211.543 28.3625Z" fill-rule="nonzero" fill="#4D6BFE"/>
	<rect id="rect" x="213.932602" y="15.000000" width="3.556191" height="21.499987" fill="#4D6BFE"/>
	<path id="polygon" d="M223.557 27.8751L229.391 36.4989L224.987 36.4989L219.152 27.8751L224.987 20.9496L229.391 20.9496L223.557 27.8751Z" fill-rule="nonzero" fill="#4D6BFE"/>
	<path id="path" d="M268.814 22.2004C267.387 20.6984 265.198 20.1598 263.024 20.1598C260.85 20.1598 258.661 20.6984 257.234 22.2004C255.807 23.7025 255.295 26.0068 255.295 28.2949C255.295 30.583 255.807 32.8873 257.234 34.3894C258.661 35.8914 260.85 36.43 263.024 36.43C265.198 36.43 267.387 35.8914 268.814 34.3894C270.241 32.8873 270.753 30.583 270.753 28.2949C270.753 26.0068 270.241 23.7037 268.814 22.2004ZM266.5 31.9538C265.643 32.8561 264.328 33.1797 263.024 33.1797C261.719 33.1797 260.405 32.8561 259.548 31.9538C258.692 31.0516 258.384 29.6683 258.384 28.2949C258.384 26.9216 258.692 25.5382 259.548 24.636C260.405 23.7337 261.719 23.4101 263.024 23.4101C264.328 23.4101 265.643 23.7337 266.5 24.636C267.356 25.5382 267.664 26.9216 267.664 28.2949C267.664 29.6683 267.357 31.0529 266.5 31.9538Z" fill-rule="nonzero" fill="#4D6BFE"/>
	<path id="path" d="M252.905 23.4163L252.905 20.1598L248.596 20.1598C246.422 20.1598 244.233 20.6984 242.806 22.2004C241.379 23.7025 240.867 26.0068 240.867 28.2949C240.867 30.583 241.379 32.8873 242.806 34.3894C244.233 35.8914 246.422 36.43 248.596 36.43L252.905 36.43L252.905 33.2185L248.596 33.1785C247.29 33.1785 245.977 32.8548 245.12 31.9526C244.264 31.0504 243.956 29.667 243.956 28.2937C243.956 26.9203 244.264 25.537 245.12 24.6347C245.977 23.7325 247.291 23.4088 248.596 23.4088L252.905 23.4163Z" fill-rule="nonzero" fill="#4D6BFE"/>
	<path id="path" d="M316.443 20.1598C314.269 20.1598 312.08 20.6984 310.653 22.2004C309.226 23.7025 308.714 26.0068 308.714 28.2949C308.714 28.3686 308.717 28.4411 308.717 28.5148L308.714 36.43L311.806 36.43L311.806 28.5148C311.805 28.4411 311.803 28.3686 311.803 28.2949C311.803 26.9216 312.111 25.5382 312.967 24.636C313.824 23.7337 315.139 23.4101 316.443 23.4101L319 23.4163L319 20.1598L316.443 20.1598Z" fill-rule="nonzero" fill="#4D6BFE"/>
	<path id="path" d="M66.2963 4.1123C65.5865 3.76689 65.2808 4.42533 64.8659 4.75996C64.724 4.8679 64.6039 5.00823 64.4838 5.13776C63.4465 6.23877 62.2346 6.96199 60.6514 6.87563C58.3366 6.7461 56.3604 7.46932 54.6134 9.22878C54.2422 7.05913 53.0084 5.76382 51.1304 4.93266C50.1478 4.50089 49.1542 4.06912 48.4663 3.13002C47.9859 2.46078 47.8549 1.71598 47.6147 0.981968C47.4618 0.539402 47.3089 0.0860443 46.7958 0.0104828C46.2389 -0.0758705 46.0205 0.388283 45.8022 0.776875C44.9287 2.36363 44.5902 4.1123 44.623 5.88256C44.6994 9.86564 46.3918 13.0392 49.7547 15.2952C50.1368 15.5542 50.2351 15.8133 50.115 16.1911C49.8857 16.9683 49.6127 17.7239 49.3725 18.501C49.2197 18.9976 48.9904 19.1055 48.4554 18.8896C46.6101 18.1233 45.016 16.9899 43.6075 15.619C41.2164 13.3198 39.0545 10.7832 36.3576 8.79701C35.7244 8.33286 35.0911 7.90108 34.436 7.4909C31.6845 4.83552 34.7963 2.65508 35.5169 2.39602C36.2703 2.12616 35.779 1.19785 33.3441 1.20865C30.9093 1.21944 28.6819 2.02901 25.8431 3.10843C25.4282 3.27035 24.9915 3.38909 24.5438 3.48623C21.967 3.00049 19.292 2.89255 16.4968 3.20558C11.2341 3.78847 7.03046 6.26036 3.94051 10.4809C0.228195 15.5542 -0.645279 21.3183 0.424728 27.3308C1.54935 33.667 4.80307 38.913 9.80376 43.0148C14.9901 47.2677 20.9625 49.351 27.7757 48.9516C31.9138 48.7142 36.5214 48.1637 41.7186 43.792C43.0289 44.4397 44.4046 44.6987 46.6866 44.893C48.4445 45.0549 50.1368 44.8067 51.4471 44.5368C53.4997 44.105 53.3578 42.216 52.6153 41.8706C46.5992 39.0857 47.9203 40.2191 46.7193 39.3016C49.7765 35.7071 54.3841 31.9723 56.1857 19.8719C56.3276 18.9112 56.2075 18.3067 56.1857 17.5296C56.1748 17.0546 56.284 16.8711 56.8299 16.8171C58.3366 16.6444 59.7997 16.2343 61.1427 15.5002C65.0406 13.3846 66.6129 9.90882 66.9841 5.74223C67.0387 5.10537 66.9732 4.44692 66.2963 4.1123ZM32.3287 41.6116C26.4982 37.0564 23.6703 35.556 22.502 35.6207C21.4102 35.6855 21.6067 36.9268 21.8469 37.7364C22.098 38.5352 22.4256 39.0857 22.8842 39.7873C23.2008 40.2515 23.4192 40.9423 22.5675 41.4604C20.6895 42.6154 17.4249 41.0718 17.272 40.9963C13.4724 38.7727 10.2951 35.8366 8.05679 31.8212C5.89493 27.9568 4.63928 23.8118 4.43184 19.3862C4.37724 18.3175 4.69388 17.9397 5.7639 17.7454C7.17239 17.4864 8.62456 17.4324 10.0331 17.6375C15.9836 18.501 21.0499 21.1456 25.2971 25.3338C27.7211 27.7193 29.5554 30.569 31.4443 33.3539C33.4533 36.3116 35.6152 39.1289 38.3666 41.4388C39.3384 42.2484 40.1136 42.8637 40.8561 43.317C38.6178 43.5653 34.8836 43.6193 32.3287 41.6116ZM35.1238 23.7471C35.1238 23.2721 35.506 22.8943 35.9864 22.8943C36.0956 22.8943 36.1938 22.9159 36.2812 22.9483C36.4013 22.9915 36.5105 23.0562 36.5978 23.1534C36.7507 23.3045 36.838 23.5204 36.838 23.7471C36.838 24.222 36.4559 24.5998 35.9755 24.5998C35.4951 24.5998 35.1238 24.222 35.1238 23.7471ZM43.8041 28.1727C43.2472 28.3994 42.6904 28.5937 42.1554 28.6153C41.3256 28.6584 40.4193 28.3238 39.928 27.9136C39.1637 27.2768 38.6178 26.9206 38.3885 25.8088C38.2902 25.3338 38.3448 24.5998 38.4322 24.1788C38.6287 23.2721 38.4103 22.6892 37.7661 22.1603C37.242 21.7285 36.576 21.6098 35.8445 21.6098C35.5715 21.6098 35.3204 21.4911 35.1348 21.3939C34.829 21.2428 34.5779 20.865 34.8181 20.4008C34.8945 20.2497 35.2658 19.8827 35.3531 19.8179C36.3467 19.2566 37.4932 19.4401 38.5523 19.8611C39.5349 20.2605 40.2774 20.9945 41.3474 22.0308C42.4393 23.2829 42.6358 23.6283 43.2581 24.5674C43.7495 25.3014 44.1971 26.057 44.5029 26.9206C44.6885 27.4603 44.4483 27.9028 43.8041 28.1727Z" fill-rule="nonzero" fill="#4D6BFE"/>
</svg>
